<svg xmlns="http://www.w3.org/2000/svg" id="Product_Icons" width="512" height="512" data-name="Product Icons" viewBox="0 0 24 24"><defs><style>.cls-1,.cls-2{fill:#4285f4}.cls-1,.cls-4{fill-rule:evenodd}.cls-3,.cls-4{fill:#669df6}</style></defs><title>Icon_24px_Color_ServiceDiscovery</title><path d="M18.18,17.24a9,9,0,0,1-1.51,1.32l2.94,2.94a1,1,0,0,0,1.41,0h0a1,1,0,0,0,0-1.41Z" class="cls-1"/><polygon points="14 15.5 9.19 15.5 13.19 7.5 10 7.5 10 6.5 14.81 6.5 10.81 14.5 14 14.5 14 15.5" class="cls-2"/><circle cx="14" cy="15" r="1.25" class="cls-3"/><circle cx="10" cy="15" r="1.25" class="cls-3"/><rect width="8" height="1" x="8" y="10.5" class="cls-2"/><path d="M12,4a7,7,0,1,1-7,7,7,7,0,0,1,7-7m0-2a9,9,0,1,0,9,9,9,9,0,0,0-9-9" class="cls-4"/><circle cx="12" cy="11" r="1.25" class="cls-3"/><circle cx="8" cy="11" r="1.25" class="cls-3"/><circle cx="16" cy="11" r="1.25" class="cls-3"/><circle cx="14" cy="7" r="1.25" class="cls-3"/><circle cx="10" cy="7" r="1.25" class="cls-3"/></svg>